Coordinates
version=1
nRows=14
nColumns=24
inDegrees=yes

Units are S.I. units (second, meters, Newtons, ...)
Angles are in degrees.

endheader
time	pelvis_tilt	pelvis_list	pelvis_rotation	pelvis_tx	pelvis_ty	pelvis_tz	hip_flexion_r	hip_adduction_r	hip_rotation_r	knee_angle_r	ankle_angle_r	subtalar_angle_r	mtp_angle_r	hip_flexion_l	hip_adduction_l	hip_rotation_l	knee_angle_l	ankle_angle_l	subtalar_angle_l	mtp_angle_l	lumbar_extension	lumbar_bending	lumbar_rotation
      1.42066667	     -2.29968720	     -0.20704804	    -13.69009704	      0.96453241	      0.98185201	      0.31704955	    -17.95220518	     -1.90408405	      9.23570057	     -5.82861164	     10.74348658	     -3.89269411	     13.17125734	     25.61743760	     -5.60631777	    -15.47528569	      3.39901472	      5.52492225	     -7.50302350	      4.97315401	     -0.68611924	      0.77491279	     11.05923594
      1.42483333	     -2.25527218	     -0.08260997	    -13.75323554	      0.97065391	      0.98138744	      0.31647969	    -18.14113067	     -2.15961357	      9.16404786	     -6.17084103	     10.62109258	     -3.85518693	     13.21430206	     25.56237789	     -5.47878665	    -15.45872733	      3.03948370	      5.59386286	     -7.57376699	      4.97724980	     -0.67380749	      0.56478340	     11.23660243
      1.42900000	     -2.23955647	      0.02349050	    -13.81462628	      0.97679623	      0.98091979	      0.31586913	    -18.28511482	     -2.38721248	      9.10519348	     -6.54704239	     10.44052626	     -3.84721666	     13.24411453	     25.54406753	     -5.37024990	    -15.40179216	      2.62938859	      5.62098580	     -7.73678321	      4.98318417	     -0.62368253	      0.41660412	     11.29519750
      1.43316667	     -2.22068473	      0.15520178	    -13.86499732	      0.98297973	      0.98047779	      0.31520702	    -18.40361549	     -2.64117720	      8.98336623	     -6.97241333	     10.29840953	     -3.68772772	     13.40541539	     25.50294995	     -5.21627736	    -15.21282681	      2.24285666	      5.49334569	     -8.13390150	      5.02075382	     -0.58997754	      0.22862903	     11.45731865
      1.43733333	     -2.20441580	      0.30099520	    -13.90465350	      0.98922869	      0.98006786	      0.31454384	    -18.52726396	     -2.90050598	      8.91735802	     -7.38077560	     10.07170618	     -3.72883591	     13.44593127	     25.49068851	     -5.04969679	    -15.13439106	      1.76752414	      5.44404797	     -8.28644966	      5.03202301	     -0.52059194	      0.02598205	     11.47925939
      1.44150000	     -2.19340902	      0.46739064	    -13.93126505	      0.99551948	      0.97966528	      0.31381261	    -18.61842650	     -3.17981753	      8.77774373	     -7.83538722	      9.87464692	     -3.60240947	     13.70103609	     25.46088463	     -4.83913660	    -14.87003874	      1.33892239	      5.19759332	     -8.79022631	      5.10328820	     -0.45460185	     -0.19460326	     11.59269667
      1.44566667	     -2.16735871	      0.64077434	    -13.95627046	      1.00186223	      0.97932617	      0.31308976	    -18.72214802	     -3.46222986	      8.68850881	     -8.29725856	      9.60214984	     -3.66983262	     13.75760466	     25.45223946	     -4.62827135	    -14.78670185	      0.80772386	      5.07307042	     -8.93547862	      5.12049620	     -0.38235653	     -0.43065374	     11.61457548
      1.44983333	     -2.15864061	      0.84482934	    -13.96797262	      1.00825875	      0.97898328	      0.31230486	    -18.78341585	     -3.77280372	      8.53119744	     -8.79438030	      9.35313609	     -3.56076593	     14.10565362	     25.42635243	     -4.36187831	    -14.51405686	      0.36146212	      4.70950265	     -9.45603114	      5.22434497	     -0.29460344	     -0.69257732	     11.71258381
      1.45400000	     -2.14876331	      1.06187097	    -13.95708208	      1.01470733	      0.97867377	      0.31150543	    -18.84552661	     -4.08184170	      8.40359408	     -9.29604608	      9.01851633	     -3.63105641	     14.26097597	     25.44617871	     -4.08676541	    -14.36956283	     -0.19482298	      4.49074652	     -9.62134059	      5.27567235	     -0.19638749	     -0.98760001	     11.73600100
      1.45816667	     -2.14269266	      1.27213126	    -13.95382316	      1.02116330	      0.97839890	      0.31065560	    -18.86844832	     -4.38793512	      8.24522817	     -9.85348150	      8.62670748	     -3.73399216	     19.41281644	     25.45076311	     -3.80653105	    -14.14885285	     -0.71210589	      4.09170864	    -10.07967655	      6.98804772	     -0.09137706	     -1.23917171	     11.75858386
      1.46233333	     -2.12427249	      1.50791170	    -13.92452184	      1.02765376	      0.97816434	      0.30978077	    -18.89878132	     -4.70984365	      8.06977989	    -10.42744652	      8.26353086	     -3.76158469	     19.42927481	     25.48338988	     -3.49868748	    -14.02446301	     -1.31135123	      3.75752898	    -10.21271964	      7.00241428	      0.00162571	     -1.54804367	     11.81034374
      1.46650000	     -2.12759779	      1.75305564	    -13.90311344	      1.03416205	      0.97794051	      0.30886617	    -18.85805137	     -5.03927505	      7.86203475	    -11.08992070	      7.92872929	     -3.70687082	     19.53038877	     25.51298932	     -3.17214130	    -13.81304861	     -1.85488739	      3.31338018	    -10.61665791	      7.05168439	      0.13089171	     -1.83395039	     11.87190179
      1.47066667	     -2.12309201	      2.01135995	    -13.85230954	      1.04072367	      0.97775889	      0.30791717	    -18.82643666	     -5.37077659	      7.65111995	    -11.75196911	      7.51687713	     -3.73780180	     19.71415822	     25.54892160	     -2.82033132	    -13.59817087	     -2.42586100	      2.88335106	    -10.94943637	      7.13163979	      0.25288186	     -2.15376912	     11.89471477
      1.47483333	     -2.12356630	      2.27405525	    -13.78809002	      1.04732412	      0.97760486	      0.30694347	    -18.77694300	     -5.69853740	      7.43422799	    -12.43933911	      7.06056740	     -3.78274754	     19.92830138	     25.61067729	     -2.46455097	    -13.43098191	     -3.04009795	      2.43645473	    -11.21175162	      7.21409060	      0.38985418	     -2.47357690	     11.90431303
